<svg xmlns="http://www.w3.org/2000/svg" width="128" height="128" viewBox="0 0 128 128">
  <title>WINERY</title>
  <g>
    <path d="M22.439,15.2A14.531,14.531,0,1,0,36.97,29.726,14.547,14.547,0,0,0,22.439,15.2ZM11.409,29.726a10.966,10.966,0,0,1,.854-4.251h3.669v2.053a3.952,3.952,0,0,0,3.947,3.948h4.667a3.952,3.952,0,0,0,3.948-3.948V25.475h4.122a11.007,11.007,0,0,1,0,8.5H12.263A10.97,10.97,0,0,1,11.409,29.726Zm8.023-4.251h5.562v2.053a.449.449,0,0,1-.448.448H19.879a.448.448,0,0,1-.447-.448Zm3.007-6.78a10.992,10.992,0,0,1,7.837,3.28H14.6A10.991,10.991,0,0,1,22.439,18.7Zm0,22.061A11,11,0,0,1,14.6,37.477H30.276A11,11,0,0,1,22.439,40.756Z"/>
    <path d="M64,44.256a14.531,14.531,0,1,0-14.53-14.53A14.546,14.546,0,0,0,64,44.256ZM61.219,25.475h5.562v2.053a.448.448,0,0,1-.447.448H61.666a.448.448,0,0,1-.447-.448Zm.447,6h4.668a3.952,3.952,0,0,0,3.947-3.948V25.475h3.895a11.007,11.007,0,0,1,0,8.5H53.824a11.007,11.007,0,0,1,0-8.5h3.9v2.053A3.952,3.952,0,0,0,61.666,31.476ZM64,40.756a11,11,0,0,1-7.837-3.279H71.837A11,11,0,0,1,64,40.756ZM64,18.7a10.994,10.994,0,0,1,7.837,3.28H56.163A10.994,10.994,0,0,1,64,18.7Z"/>
    <path d="M105.56,44.256a14.531,14.531,0,1,0-14.53-14.53A14.547,14.547,0,0,0,105.56,44.256Zm-2.554-18.781h5.562v2.053a.448.448,0,0,1-.447.448h-4.667a.449.449,0,0,1-.448-.448Zm.448,6h4.667a3.952,3.952,0,0,0,3.947-3.948V25.475h3.669a11.007,11.007,0,0,1,0,8.5H95.531c-.048,0-.094.01-.141.014a11.006,11.006,0,0,1-.006-8.516h4.122v2.053A3.952,3.952,0,0,0,103.454,31.476Zm2.106,9.28a11,11,0,0,1-7.836-3.279H113.4A11,11,0,0,1,105.56,40.756Zm0-22.061a10.992,10.992,0,0,1,7.837,3.28H97.724A10.991,10.991,0,0,1,105.56,18.7Z"/>
    <path d="M128.091,84.78A22.527,22.527,0,0,0,117.6,65.75h8.652A1.75,1.75,0,0,0,128,64V50.506a1.75,1.75,0,0,0-1.75-1.75H117.6A22.524,22.524,0,1,0,84.78,21.023a22.528,22.528,0,0,0-41.56,0A22.527,22.527,0,1,0,10.4,48.756H1.75A1.75,1.75,0,0,0,0,50.506V64a1.75,1.75,0,0,0,1.75,1.75H10.4a22.5,22.5,0,0,0,0,38.06H1.75A1.75,1.75,0,0,0,0,105.56v13.5a1.75,1.75,0,0,0,1.75,1.75h124.5a1.75,1.75,0,0,0,1.75-1.75v-13.5a1.75,1.75,0,0,0-1.75-1.75H117.6A22.526,22.526,0,0,0,128.091,84.78ZM105.56,10.7A19.031,19.031,0,1,1,86.53,29.726,19.052,19.052,0,0,1,105.56,10.7ZM93.523,48.756H76.038A22.667,22.667,0,0,0,84.78,38.428,22.669,22.669,0,0,0,93.523,48.756ZM64,10.7A19.031,19.031,0,1,1,44.97,29.726,19.052,19.052,0,0,1,64,10.7ZM51.962,48.756H34.477A22.669,22.669,0,0,0,43.22,38.428,22.667,22.667,0,0,0,51.962,48.756ZM3.409,29.726a19.031,19.031,0,1,1,19.03,19.03A19.052,19.052,0,0,1,3.409,29.726ZM3.5,62.25V52.256h121V62.25ZM84.78,93.483a22.662,22.662,0,0,0,8.743,10.327H76.038A22.659,22.659,0,0,0,84.78,93.483ZM64,103.81A19.03,19.03,0,1,1,83.03,84.78,19.052,19.052,0,0,1,64,103.81Zm-12.038,0H34.477A22.662,22.662,0,0,0,43.22,93.483,22.659,22.659,0,0,0,51.962,103.81ZM43.22,76.078A22.664,22.664,0,0,0,34.477,65.75H51.962A22.662,22.662,0,0,0,43.22,76.078ZM76.038,65.75H93.523A22.664,22.664,0,0,0,84.78,76.078,22.662,22.662,0,0,0,76.038,65.75ZM3.409,84.78a19.031,19.031,0,1,1,19.03,19.03A19.052,19.052,0,0,1,3.409,84.78ZM124.5,107.31v10H3.5v-10Zm-18.94-3.5a19.03,19.03,0,1,1,19.031-19.03A19.052,19.052,0,0,1,105.56,103.81Z"/>
    <path d="M22.439,70.25A14.53,14.53,0,1,0,36.97,84.78,14.547,14.547,0,0,0,22.439,70.25ZM11.409,84.78a10.966,10.966,0,0,1,.854-4.251h3.669v2.054a3.951,3.951,0,0,0,3.947,3.947h4.667a3.952,3.952,0,0,0,3.948-3.947V80.529h4.122a11.007,11.007,0,0,1,0,8.5H12.263A10.966,10.966,0,0,1,11.409,84.78Zm8.023-4.251h5.562v2.054a.448.448,0,0,1-.448.447H19.879a.447.447,0,0,1-.447-.447Zm3.007-6.779a11,11,0,0,1,7.837,3.279H14.6A11,11,0,0,1,22.439,73.75Zm0,22.06A10.991,10.991,0,0,1,14.6,92.531H30.276A10.991,10.991,0,0,1,22.439,95.81Z"/>
    <path d="M64,70.25A14.53,14.53,0,1,0,78.53,84.78,14.546,14.546,0,0,0,64,70.25ZM52.97,84.78a10.966,10.966,0,0,1,.854-4.251h3.9v2.054a3.951,3.951,0,0,0,3.947,3.947h4.668a3.951,3.951,0,0,0,3.947-3.947V80.529h3.895a11.007,11.007,0,0,1,0,8.5H53.824A10.966,10.966,0,0,1,52.97,84.78Zm8.249-4.251h5.562v2.054a.447.447,0,0,1-.447.447H61.666a.447.447,0,0,1-.447-.447ZM64,73.75a11,11,0,0,1,7.837,3.279H56.163A11,11,0,0,1,64,73.75Zm0,22.06a10.993,10.993,0,0,1-7.837-3.279H71.837A10.993,10.993,0,0,1,64,95.81Z"/>
    <path d="M105.56,70.25a14.53,14.53,0,1,0,14.531,14.53A14.547,14.547,0,0,0,105.56,70.25Zm-10.17,18.8a11.009,11.009,0,0,1-.006-8.517h4.122v2.054a3.952,3.952,0,0,0,3.948,3.947h4.667a3.951,3.951,0,0,0,3.947-3.947V80.529h3.669a11.007,11.007,0,0,1,0,8.5H95.531C95.483,89.031,95.437,89.042,95.39,89.046Zm7.616-8.517h5.562v2.054a.447.447,0,0,1-.447.447h-4.667a.448.448,0,0,1-.448-.447Zm2.554-6.779a11,11,0,0,1,7.837,3.279H97.724A11,11,0,0,1,105.56,73.75Zm0,22.06a10.991,10.991,0,0,1-7.836-3.279H113.4A10.991,10.991,0,0,1,105.56,95.81Z"/>
  </g>
</svg>
